<svg width="536" height="408" viewBox="0 0 536 408" fill="none" xmlns="http://www.w3.org/2000/svg">
<g clip-path="url(#clip0_263_233)">
<path d="M207.387 0C210.472 0 213.505 0.229534 216.468 0.670898C267.439 0.395583 327.543 0.171534 393.282 0C385.456 1.88821 377.705 4.96686 370.414 11.2061L369.824 11.7188C357.528 22.555 351.176 38.247 350.582 54.1006C349.44 84.5262 348.743 128.415 348.656 153.952V153.959C348.651 156.239 348.752 158.137 349.272 159.839C351.964 172.565 363.161 181.338 376.97 181.338C385.451 181.338 392.954 177.983 398.189 172.47C398.94 171.749 399.635 170.963 400.27 170.115L400.55 169.731L400.559 169.721C400.585 169.684 400.614 169.644 400.659 169.581C400.7 169.525 400.758 169.445 400.817 169.36L400.87 169.284L400.882 169.267C400.9 169.243 400.914 169.224 400.983 169.135C401.099 168.985 401.372 168.634 401.637 168.18L402.224 167.193C414.707 146.639 436.833 135.821 462.32 135.821C483.934 135.822 502.383 143.254 515.402 155.914C528.406 168.559 536.285 186.7 536.285 208.692C536.285 251.683 504.356 280.44 464.821 280.44C449.783 280.44 437.084 276.378 425.489 269.077L425.488 269.076C419.676 265.418 414.389 260.664 409.739 255.365L409.74 255.364C407.958 253.332 406.39 251.055 404.606 248.478C402.884 245.989 400.955 243.214 398.658 240.686L398.656 240.688C398.356 240.356 398.047 240.101 397.767 239.907C392.553 234.651 385.23 231.466 376.965 231.466C361.024 231.466 348.651 243.156 348.651 258.841V258.859C348.748 284.452 349.411 324.351 350.578 353.29C351.24 369.608 357.013 383.558 367.043 393.602C373.759 400.326 382.229 405.144 392.007 407.784C317.545 407.753 254.226 407.716 210.65 407.675C209.57 407.732 208.482 407.761 207.387 407.761H61.1143C27.3619 407.761 0 380.399 0 346.646V61.1143C0 48.7277 3.68408 37.201 10.0176 27.5723C14.6828 19.265 21.5167 12.7237 30.1885 8.39062C39.2603 3.05795 49.8303 0 61.1143 0H207.387Z" fill="#83BE4F"/>
<mask id="mask0_263_233" style="mask-type:alpha" maskUnits="userSpaceOnUse" x="0" y="0" width="537" height="408">
<path d="M393.282 0C385.455 1.88823 377.705 4.96712 370.414 11.2065L369.824 11.7191C357.528 22.5555 351.176 38.2473 350.582 54.1009C349.44 84.5266 348.743 128.415 348.657 153.952V153.959C348.652 156.239 348.751 158.137 349.272 159.839C351.964 172.565 363.161 181.338 376.97 181.338C385.451 181.338 392.954 177.982 398.189 172.469C398.94 171.749 399.635 170.963 400.269 170.115L400.55 169.732L400.558 169.721C400.584 169.684 400.613 169.644 400.659 169.581C400.7 169.525 400.757 169.444 400.817 169.36L400.87 169.285L400.882 169.267C400.9 169.244 400.914 169.225 400.984 169.135C401.1 168.985 401.372 168.635 401.636 168.18L402.223 167.194C414.707 146.639 436.832 135.822 462.32 135.822C483.934 135.822 502.383 143.254 515.402 155.914C528.406 168.559 536.285 186.699 536.285 208.692C536.285 251.683 504.356 280.44 464.822 280.44C449.784 280.44 437.084 276.378 425.489 269.077L425.488 269.076C419.676 265.418 414.39 260.664 409.739 255.365L409.74 255.364C407.958 253.332 406.391 251.055 404.607 248.477C402.884 245.989 400.955 243.213 398.658 240.685L398.656 240.687C398.356 240.356 398.047 240.101 397.767 239.908C392.553 234.652 385.231 231.466 376.965 231.466C361.025 231.466 348.652 243.156 348.652 258.84V258.859C348.748 284.452 349.411 324.351 350.578 353.29C351.24 369.608 357.013 383.558 367.043 393.602C373.76 400.326 382.23 405.144 392.007 407.784C254.138 407.726 154.47 407.652 147.587 407.558C116.686 407.136 85.7899 406.353 54.9093 405.194C25.6969 404.096 4.08067 383.135 2.90605 353.212C-1.00419 253.617 -0.933016 154.008 2.90605 54.4082L2.91192 54.4179C4.08648 23.9459 23.6533 3.61952 54.9152 2.43521C85.8274 1.26666 219.968 0.45223 393.282 0Z" fill="#FFD432"/>
</mask>
<g mask="url(#mask0_263_233)">
<path d="M248.31 472.627C256.202 470.106 263.908 467.764 270.979 463.284C281.726 456.476 289.588 445.271 295.835 434.406C299.129 428.678 302.052 422.752 303.5 416.267C305.032 409.399 305.156 402.267 304.64 395.272C304.057 387.38 302.72 379.558 302.066 371.668C301.742 367.742 301.469 363.972 300.392 360.161C299.423 356.729 298.123 353.402 297.007 350.016C294.666 342.923 293.133 335.558 290.986 328.399C288.761 320.976 286.224 313.631 282.967 306.591C282.544 305.678 282.747 304.811 283.234 304.17C245.399 315.05 230.583 320.632 194.595 320.632C158.296 320.632 119.593 317.793 95.8388 303.89C49.3313 412.854 70.8842 480.956 189.282 480.956H190.767C204.695 480.956 217.266 480.002 228.559 478.162C234.786 475.279 241.796 474.706 248.31 472.627Z" fill="#A47343"/>
<path d="M219.555 339.643C289.953 340.752 289.884 458.823 222.773 479.014C312.722 467.221 326.166 402.185 284.212 303.89C245.644 314.956 230.897 320.632 194.598 320.632C158.299 320.632 119.596 317.793 95.8419 303.89C95.3237 305.106 94.822 306.312 94.3203 307.518C110.782 326.907 156.294 338.646 219.555 339.643Z" fill="#845333"/>
<path d="M306.617 283.757C306.617 306.18 254.432 324.355 190.058 324.355C125.684 324.355 73.5 306.18 73.5 283.757C73.5 261.337 125.684 243.161 190.058 243.161C254.432 243.161 306.617 261.337 306.617 283.757Z" fill="#A47343"/>
<path d="M279.39 277.784C279.39 290.008 239.396 299.918 190.06 299.918C140.725 299.918 100.73 290.008 100.73 277.784C100.73 265.559 140.725 255.651 190.06 255.651C239.396 255.651 279.39 265.559 279.39 277.784Z" fill="#231F20"/>
<path d="M262.676 278.101C268.033 278.333 280.205 275.624 277.21 268.185C276.096 265.899 273.68 263.983 271.165 262.461C274.046 263.1 277.062 263.965 279.603 266.353C288.304 276.155 273.737 287.3 264.91 289.951L262.676 278.101Z" fill="#231F20"/>
<path d="M115.67 289.983C108.845 287.77 102.436 283.851 99.2692 277.073C95.8071 269.078 101.999 263.634 109.231 262.461C105.029 264.814 100.206 269.792 104.453 273.997C107.677 277.186 113.059 278.329 117.538 278.07L115.67 289.983Z" fill="#231F20"/>
<path d="M281.514 275.656C285.317 274.554 288.205 278.954 289.576 281.9C293.928 291.376 291.06 305.843 280.238 309.28C282.531 306.68 284.231 304.043 285.26 301.149C287.364 295.396 287.48 289.023 286.224 283.044C285.474 280.245 284.711 276.509 281.514 275.656Z" fill="#845333"/>
<path d="M233.449 297.362C239.07 303.398 234.727 313.238 228.877 317.416C224.55 320.849 219.142 322.717 213.738 323.513C211.943 323.689 210.15 323.807 208.352 323.752C210.628 322.448 213.144 321.429 215.425 320.223C224.326 315.947 236.018 308.819 233.449 297.362Z" fill="#845333"/>
<path d="M166.665 299.917C166.379 309.649 157.117 322.116 146.672 321.625C154.901 315.656 160.044 307.49 166.665 299.917Z" fill="#845333"/>
<path d="M108.388 286.722C107.267 296.554 110.486 305.179 113.492 314.389C104.855 308.938 100.813 294.573 108.388 286.722Z" fill="#845333"/>
<path d="M98.6026 269.697C89.1851 273.348 81.1491 278.357 73.9297 285.445C75.3911 274.786 88.3565 266.671 98.6026 269.697Z" fill="#845333"/>
<path d="M136.038 260.758C132.201 258.834 129.068 257.031 125.072 256.065C121.133 254.993 117.194 254.71 113.066 253.522C120.824 248.647 133.275 251.372 136.038 260.758Z" fill="#845333"/>
<path d="M180.277 255.65C175.144 250.409 169.592 247.691 163.262 244.159C170.683 241.002 181.072 247.165 180.277 255.65Z" fill="#845333"/>
<path d="M225.222 332.265C215.014 356.669 165.67 415.407 98.1758 455.702" stroke="#845333" stroke-width="2.66667" stroke-miterlimit="10" stroke-linecap="round"/>
<path d="M142.984 475.564C180.418 468.754 265.495 404.34 273.434 351.56" stroke="#845333" stroke-width="2.66667" stroke-miterlimit="10" stroke-linecap="round"/>
<path d="M74.6406 410.3C94.4911 399.517 138.448 354.399 148.09 326.022" stroke="#845333" stroke-width="2.66667" stroke-miterlimit="10" stroke-linecap="round"/>
<path d="M161.699 328.861C174.745 358.938 229.76 416.825 276.835 436.121" stroke="#845333" stroke-width="2.66667" stroke-miterlimit="10" stroke-linecap="round"/>
<path d="M87.1172 328.292C99.028 353.83 178.716 444.634 258.687 457.12" stroke="#845333" stroke-width="2.66667" stroke-miterlimit="10" stroke-linecap="round"/>
<path d="M74.0703 382.774C90.5189 416.258 155.461 480.388 235.432 474.146" stroke="#845333" stroke-width="2.66667" stroke-miterlimit="10" stroke-linecap="round"/>
<path d="M201.439 79.5411C214.069 86.762 218.903 92.8597 218.771 98.956C218.766 99.1233 218.75 99.2906 218.738 99.458C218.717 99.7776 218.689 100.096 218.641 100.415C218.616 100.59 218.581 100.766 218.548 100.941C218.486 101.259 218.414 101.579 218.328 101.897C218.283 102.064 218.234 102.232 218.183 102.401C218.076 102.743 217.954 103.087 217.822 103.43C217.766 103.572 217.716 103.712 217.657 103.854C217.481 104.271 217.287 104.69 217.073 105.113C216.327 106.588 215.366 108.085 214.201 109.62C212.41 111.978 210.548 114.022 208.046 115.951C207.914 116.052 207.779 116.152 207.643 116.253C207.422 116.419 207.196 116.585 206.964 116.747C201.935 120.3 194.375 123.548 180.454 127.781C177.779 128.593 175.147 129.499 172.563 130.479C172.559 130.471 172.551 130.464 172.548 130.455C172.241 130.571 171.945 130.702 171.641 130.821C171.424 130.906 171.2 130.978 170.983 131.064C170.983 131.071 170.984 131.079 170.984 131.085C162.55 134.448 154.885 138.948 149.248 145.72C149.235 145.72 149.225 145.718 149.213 145.718C148.508 146.565 147.843 147.459 147.205 148.379C147.181 148.414 147.153 148.444 147.129 148.477C147.131 148.478 147.132 148.478 147.135 148.478C141.578 156.548 138.635 167.497 139.99 182.829C140.966 193.879 147.777 202.341 160.181 211.339C160.179 211.339 160.178 211.342 160.176 211.342C160.25 211.395 160.33 211.449 160.404 211.502C160.636 211.669 160.856 211.835 161.091 212.002C161.098 212.002 161.104 211.999 161.112 211.998C169.875 218.239 181.283 224.768 195.342 232.629C202.08 236.396 206.992 242.327 209.239 249.204C212.613 259.541 209.947 272.015 198.355 282.519C198.455 282.485 198.547 282.461 198.646 282.427C193.357 288.185 186.972 295.948 176.909 299.669C183.573 300.519 188.771 300.045 196.477 300.235C196.792 299.542 198.319 299.667 199.312 299.669C210.546 299.678 219.004 298.455 230.224 297.682C232.508 297.525 235.775 296.643 238.838 295.864C245.91 295.197 251.796 294.37 255.605 293.497C260.453 289.136 264.52 283.84 267.662 278.03C267.669 278.033 267.678 278.032 267.686 278.035C267.797 277.828 267.895 277.616 268.004 277.409C268.017 277.385 268.031 277.362 268.043 277.34C268.043 277.338 268.043 277.337 268.043 277.335C271.747 270.262 274.067 262.452 274.614 254.58C274.605 254.581 274.598 254.581 274.589 254.583C275.238 245.275 273.429 235.908 268.587 227.611C268.591 227.603 268.593 227.593 268.597 227.585C268.415 227.272 268.208 226.969 268.017 226.658C267.891 226.455 267.764 226.25 267.634 226.048C267.336 225.582 267.03 225.119 266.712 224.661C266.688 224.627 266.669 224.593 266.646 224.561C266.646 224.564 266.646 224.566 266.646 224.569C265.212 222.512 263.589 220.529 261.733 218.653C261.726 218.661 261.715 218.667 261.706 218.676C256.729 213.644 250.246 209.316 241.993 206.097C219.072 197.163 189.548 191.273 183.651 181.299C183.397 180.871 183.171 180.437 183.007 179.992C179.037 169.209 181.021 158.993 196.335 155.589C214.251 151.605 226.576 146.377 235.935 138.255C235.938 138.259 235.942 138.264 235.945 138.267C236.069 138.16 236.181 138.041 236.303 137.932C236.574 137.692 236.851 137.46 237.118 137.216C237.115 137.201 237.116 137.186 237.113 137.171C241.096 133.512 244.566 129.318 247.665 124.375C253.78 114.617 256.114 97.3656 237.767 78.0035C237.771 77.999 237.774 77.9929 237.779 77.9899C237.298 77.4834 236.777 76.9724 236.268 76.4628C236.215 76.4086 236.165 76.3558 236.113 76.3015C236.111 76.3015 236.111 76.303 236.11 76.303C230.108 70.3259 222.985 66.5074 212.499 60.3162C200.802 54.5696 196.123 53.2928 196.123 53.2928C192.392 33.8206 184.007 35.6522 167.727 34.006C162.817 27.9384 155.935 28.9243 150.041 33.4739C150.041 33.4739 146.649 34.0995 142.846 32.7608C139.045 31.4222 137.224 33.893 134.604 36.6532C131.984 39.4134 131.634 46.7835 136.549 49.5286C138.334 56.1253 142.278 59.5247 149.395 64.1889C156.512 68.853 168.101 76.7251 173.173 74.8875C178.595 72.9232 180.846 72.2374 186.003 73.8639C186.003 73.8639 195.91 77.0583 201.439 79.5411Z" fill="#F9DEB7"/>
<path d="M154.221 40.3106C154.221 36.4559 156.348 30.0959 160.176 33.4998C164.004 36.9052 169.114 39.3292 175.915 38.8211C190.166 37.7569 187.613 50.9519 204.416 60.954C210.641 64.6609 219.729 69.6794 226.535 73.5114C233.342 77.3419 241.53 90.9274 242.381 97.7367C243.231 104.547 237.702 135.62 227.067 137.747C216.432 139.875 193.462 147.963 181.977 153.496C170.491 159.029 169.215 167.117 169.215 175.63C169.215 184.143 171.767 193.932 192.186 201.168C212.604 208.404 244.934 216.492 252.59 223.301C260.246 230.112 268.329 248.839 267.478 255.225C266.628 261.609 257.694 281.188 253.866 285.871C250.038 290.553 233.447 299.066 233.447 299.066C233.447 299.066 211.47 302.186 193.037 299.917C205.373 291.83 216.008 279.06 216.857 265.865C217.708 252.67 218.56 236.496 207.5 230.537C196.44 224.578 168.364 209.681 160.708 200.316C153.051 190.952 150.498 176.055 153.051 167.117C155.604 158.178 162.835 146.26 179.424 139.875C196.014 133.491 218.56 125.404 219.836 119.019C221.112 112.635 223.664 111.783 226.642 108.803C229.619 105.824 229.194 96.8864 223.239 90.5007C217.284 84.1165 208.35 71.3466 203.245 74.3269C198.141 77.3057 187.933 79.8594 184.103 70.9215C180.275 61.9837 177.191 57.1235 172.938 56.6984C168.683 56.2718 154.221 43.716 154.221 40.3106Z" fill="#DC9E4E"/>
<path d="M156.61 51.988C155.894 54.5387 152.461 55.8065 148.94 54.8191C145.417 53.8317 143.143 50.9614 143.858 48.4107C144.572 45.8586 148.007 44.5908 151.528 45.5797C155.049 46.5671 157.324 49.4358 156.61 51.988Z" fill="#080604"/>
<path d="M154.381 49.8533C154.06 50.6342 152.846 50.8769 151.669 50.3945C150.491 49.9106 149.796 48.8855 150.117 48.1031C150.438 47.3208 151.653 47.0781 152.829 47.562C154.007 48.0444 154.702 49.071 154.381 49.8533Z" fill="white"/>
<path d="M137.05 48.8334C129.874 48.5967 119.692 40.7005 112.076 28.7989C112.84 32.542 114.743 35.5178 116.932 38.6262C110.964 36.1766 108.926 34.7882 103.516 28C104.038 34.6676 118.126 46.8239 136.667 50.3906L137.05 48.8334Z" fill="#231F20"/>
<path d="M143.027 40.6859C147.564 38.1352 154.028 37.8835 157.685 42.1662C160.782 45.9952 163.078 50.2282 167.217 53.0985L167.069 53.3623C163.75 51.7101 160.797 49.274 158.42 46.4098C156.398 43.5455 153.558 42.1722 150.174 41.8074C147.993 41.4426 145.595 41.4215 143.076 40.9828L143.027 40.6859Z" fill="#5A3114"/>
<path d="M203.99 296.121L215.05 288.885L212.073 275.69L201.863 285.48L203.99 296.121Z" fill="#5A3114"/>
<path d="M220.246 268.053L226.298 256.299L217.2 246.292L213.148 259.849L220.246 268.053Z" fill="#5A3114"/>
<path d="M216.573 236.51L213.475 223.657L200.055 222.032L205.841 234.942L216.573 236.51Z" fill="#5A3114"/>
<path d="M172.758 204.936L169.174 190.063L153.645 188.184L160.341 203.121L172.758 204.936Z" fill="#5A3114"/>
<path d="M161.91 147.009L175.664 147.474L181.027 134.446L166.467 136.668L161.91 147.009Z" fill="#5A3114"/>
<path d="M211.438 121.917L219.002 120.274L220.132 112.43L212.498 115.65L211.438 121.917Z" fill="#5A3114"/>
<path d="M224.762 103.756L228.321 96.8757L223.001 91.0041L220.613 98.941L224.762 103.756Z" fill="#5A3114"/>
<path d="M214.462 80.049L210.919 73.1629L203.055 74.1005L208.138 80.6445L214.462 80.049Z" fill="#5A3114"/>
<path d="M192.771 71.1116L189.227 64.2239L181.363 65.1615L186.446 71.707L192.771 71.1116Z" fill="#5A3114"/>
<path d="M197.253 70.3037C198.586 71.2941 200.145 71.8066 202.034 71.8066C206.061 71.8051 211.607 69.4625 219.638 64.5104C217.437 63.2095 215.071 61.8346 212.497 60.3166C212.39 60.2638 212.296 60.2186 212.189 60.1659C204.736 64.3823 202.342 64.3476 201.783 64.2376C201.596 63.8109 201.067 61.8964 202.578 55.7414C198.075 53.8299 196.121 53.2932 196.121 53.2932C196.023 52.7867 195.922 52.3028 195.818 51.8249C193.789 59.1302 192.564 66.8154 197.253 70.3037Z" fill="#5A3114"/>
<path d="M217.408 84.2088C219.957 90.7152 229.221 93.7693 249.056 94.5186C247.76 91.5021 246.019 88.3786 243.721 85.1722C227.26 83.9933 225.88 81.0537 225.825 80.909C225.817 80.8909 225.355 79.0141 231.791 72.5048C229.502 70.7018 227.004 69.0179 224.237 67.2964C219.02 72.752 215.17 78.4925 217.408 84.2088Z" fill="#5A3114"/>
<path d="M224.198 108.266C221.011 115.835 225.572 124.966 235.331 138.755C235.53 138.588 235.736 138.425 235.932 138.254C235.935 138.259 235.94 138.263 235.943 138.266C236.066 138.159 236.178 138.04 236.3 137.932C236.571 137.692 236.848 137.46 237.115 137.216C237.112 137.201 237.113 137.186 237.11 137.171C239.149 135.298 241.05 133.28 242.838 131.097C238.591 124.993 232.564 115.58 233.917 112.362C235.214 109.284 245.493 107.206 252.015 106.133C251.765 102.901 251.005 99.4563 249.601 95.8473C235.494 98.2231 227.163 101.222 224.198 108.266Z" fill="#5A3114"/>
<path d="M198.397 123.905C190.775 127.48 187.894 137.393 188.895 156.791C189.521 156.969 190.154 157.174 190.785 157.37C192.405 156.663 194.232 156.056 196.333 155.59C197.884 155.245 199.38 154.886 200.849 154.521C200.153 136.945 203.474 134.844 203.51 134.826C203.673 134.749 207.386 133.297 222.599 146.959C226.551 145.022 230.084 142.853 233.282 140.402C216.664 124.94 206.448 120.129 198.397 123.905Z" fill="#5A3114"/>
<path d="M150.185 159.935C147.347 163.025 146.602 167.1 148.195 170.834C151.731 179.128 166.022 184.374 187.695 185.452C185.904 184.141 184.517 182.764 183.65 181.299C183.396 180.871 183.17 180.437 183.005 179.992C182.311 178.105 181.812 176.238 181.521 174.42C165.046 172.759 159.077 168.547 158.034 166.961C159.556 165.363 167.501 162.492 182.114 165.915C183.378 162.391 186.112 159.412 190.787 157.369C190.156 157.173 189.523 156.968 188.896 156.79C171.774 151.9 156.496 153.061 150.185 159.935Z" fill="#5A3114"/>
<path d="M181.27 215.184C183.456 218.213 186.983 219.752 192.111 219.752C201.391 219.75 215.925 214.693 237.184 204.3C231.767 202.344 226.116 200.521 220.587 198.747C202.097 206.929 194.448 207.822 191.718 207.728C192.548 205.396 195.331 200.495 202.508 192.673C198.086 191.024 194.14 189.329 190.943 187.525C179.964 200.192 176.874 209.091 181.27 215.184Z" fill="#5A3114"/>
<path d="M222.655 241.321C225.989 251.112 239.807 254.947 272.957 254.947C273.488 254.947 274.036 254.944 274.575 254.941C274.585 254.821 274.603 254.7 274.612 254.579C274.603 254.581 274.595 254.581 274.586 254.582C274.859 250.663 274.667 246.738 274.026 242.88C237.939 242.928 234.352 238.002 234.072 237.456C233.935 236.58 234.471 231.482 256.736 214.313C253.52 211.83 249.839 209.59 245.644 207.66C228.71 221.07 219.375 231.684 222.655 241.321Z" fill="#5A3114"/>
<path d="M231.32 281.241C234.367 274.821 255.394 273.202 270.25 272.605C271.896 268.674 273.135 264.579 273.884 260.414C242.846 261.495 225.954 264.43 220.432 276.071C217.977 281.244 217.707 287.589 222.81 298.271C225.181 298.065 227.623 297.861 230.222 297.682C231.685 297.581 233.555 297.183 235.515 296.704C231.393 289.261 229.975 284.079 231.32 281.241Z" fill="#5A3114"/>
<path d="M112.25 243.2C120.191 255.401 127.423 271.718 122.885 292.716C132.102 295.412 140.927 296.298 153.796 298.108C155.285 285.693 153.37 253.77 128.486 231.211L112.25 243.2Z" fill="#DC9E4E"/>
<path d="M128.486 231.211L124.945 233.825C147.251 255.242 149.932 284.252 148.866 297.429C150.447 297.643 152.083 297.867 153.796 298.108C155.284 285.693 153.37 253.77 128.486 231.211Z" fill="#F9DEB7"/>
<path d="M98.7296 145.982C104.061 144.972 108.811 149.161 106.157 158.553C111.157 160.867 111.849 169.283 108.325 172.574C112.484 173.485 115.508 179.126 111.606 183.992C115.992 184.336 118.393 190.717 115.241 195.141C119.672 196.406 123.919 203.521 120.117 208.344C123.877 208.603 129.266 212.634 127.088 219.582C133.029 218.898 136.243 226.343 133.234 230.823C130.224 235.304 121.119 241.477 112.266 241.416C112.266 241.416 105.999 242.713 104.075 239.892C102.151 237.073 103.062 230.822 99.9047 229.051C96.7469 227.278 95.5914 225.422 94.588 221.733C93.5847 218.044 94.3711 215.231 92.5738 211.886C90.7765 208.541 90.2416 205.121 90.433 202.566C90.6243 200.009 90.8774 198.958 89.6646 196.42C88.4503 193.882 91.8341 191.36 89.5577 188.811C87.2797 186.262 85.8816 183.568 86.537 179.634C87.1939 175.701 91.703 174.694 89.9644 172.03C88.2258 169.365 88.6085 164.253 90.0488 161.863C91.4891 159.476 94.3138 159.378 93.6841 154.967C93.0529 150.554 94.8517 149.541 96.1956 148.019C97.5394 146.496 98.7296 145.982 98.7296 145.982Z" fill="#F9DEB7"/>
<path d="M100.568 159.438C93.2071 162.634 91.1974 157.626 91.455 153.517C91.7488 148.827 95.6267 143.29 102.584 146.113C98.3445 145.871 96.1976 151.258 96.038 153.806C95.9174 155.728 96.8078 159.176 100.568 159.438Z" fill="#DC9E4E"/>
<path d="M100.131 174.997C90.3415 180.513 87.2953 172.545 86.6655 170.06C85.2238 164.389 88.4387 157.477 93.6846 154.967L95.6642 159.111C92.3784 160.685 90.209 165.364 91.1159 168.93C92.0831 172.738 96.9177 175.162 100.131 174.997Z" fill="#DC9E4E"/>
<path d="M100.361 189.029C91.4543 194.514 86.4314 188.376 85.3467 186.125C83.1531 181.564 84.5482 175.397 88.5918 171.779L91.6531 175.204C89.1191 177.471 88.167 181.392 89.4867 184.131C90.8426 186.951 95.2945 189.888 100.361 189.029Z" fill="#DC9E4E"/>
<path d="M103.84 200.157C95.8056 206.155 89.924 202.28 88.0016 199.482C85.7388 196.188 85.8683 191.451 88.3361 187.413L92.2516 189.81C91.0072 191.852 90.3775 194.83 91.7846 196.878C93.4147 199.251 97.9766 201.239 103.84 200.157Z" fill="#DC9E4E"/>
<path d="M105.334 215.676C96.492 220.595 91.5566 215.194 89.818 212.23C87.0986 207.592 88.4606 202.13 90.4537 198.865L94.3738 201.257C92.9818 203.538 92.2014 207.216 93.7787 209.903C95.3621 212.601 99.9029 215.887 105.334 215.676Z" fill="#DC9E4E"/>
<path d="M112.383 228.529C103.021 234.927 97.3127 230.192 94.9624 227.496C92.0141 224.112 91.2277 218.834 92.9151 213.728L97.2735 215.168C96.35 217.97 96.1662 221.884 98.423 224.475C100.669 227.052 106.498 229.616 112.383 228.529Z" fill="#DC9E4E"/>
<path d="M120.747 239.518C114.19 247.316 105.696 245.18 101.753 241.189C98.8608 238.264 98.2069 233.951 99.9063 229.05L104.245 230.558C103.469 232.792 102.974 235.89 105.018 237.958C107.644 240.617 113.687 241.88 120.747 239.518Z" fill="#DC9E4E"/>
<path d="M103.105 188.02C105.566 186.257 108.166 185.185 111.077 184.399C108.961 186.563 106.094 187.744 103.105 188.02Z" fill="#DC9E4E"/>
<path d="M100.75 175.166C103.364 173.642 106.053 172.816 109.024 172.303C106.716 174.262 103.753 175.171 100.75 175.166Z" fill="#DC9E4E"/>
<path d="M96.9023 159.296C99.9486 158.883 102.576 158.815 105.577 158.12C103.335 160.291 99.6684 160.499 96.9023 159.296Z" fill="#DC9E4E"/>
<path d="M106.328 199.169C108.788 197.407 111.389 196.335 114.299 195.548C112.184 197.713 109.317 198.893 106.328 199.169Z" fill="#DC9E4E"/>
<path d="M109.348 213.939C112.606 211.47 115.87 209.863 119.74 208.565C117.271 211.809 113.394 213.715 109.348 213.939Z" fill="#DC9E4E"/>
<path d="M116.32 225.589C119.577 223.12 122.841 221.513 126.711 220.215C124.242 223.459 120.365 225.364 116.32 225.589Z" fill="#DC9E4E"/>
<path d="M291.177 97.5999C292.469 102.068 290.978 106.423 287.846 107.331C284.713 108.237 281.128 105.351 279.837 100.885C278.544 96.4165 280.036 92.0599 283.168 91.1539C286.3 90.2464 289.885 93.1332 291.177 97.5999Z" fill="#FFFB00"/>
<path d="M311.74 111.232C313.031 115.7 311.539 120.057 308.409 120.963C305.277 121.871 301.691 118.984 300.398 114.517C299.107 110.049 300.599 105.694 303.729 104.786C306.861 103.88 310.447 106.766 311.74 111.232Z" fill="#FFFB00"/>
<path d="M311.891 116.807L309.444 115.516C313.501 107.81 312.503 94.4552 310.166 84.2601C302.149 80.7868 297.286 73.6504 292.981 67.3325C292.809 67.0808 292.637 66.8305 292.467 66.5818C294.959 82.5084 292.932 97.4415 290.805 101.694L288.333 100.456C290.103 96.9109 292.86 79.4075 288.569 60.992L287.176 55.0103L290.998 59.8162C292.444 61.6342 293.814 63.6452 295.266 65.7738C299.468 71.9379 304.23 78.9251 311.864 81.9702L312.53 82.2355L312.695 82.935C315.261 93.6984 316.397 108.249 311.891 116.807Z" fill="#FFFB00"/>
<path d="M292.423 77.484C296.455 85.9983 307.376 91.2096 312.411 90.5373L313.922 98.4727C306.675 98.7395 297.133 92.8678 292.797 86.0118C292.378 84.5631 292.423 77.484 292.423 77.484Z" fill="#FFFB00"/>
<path d="M261.685 177.225C251.254 176.824 250.906 186.539 259.651 189.25C272.573 193.255 274.648 177.724 261.685 177.225Z" fill="#FFFB00"/>
<path d="M257.277 168.122C254.571 165.363 251.689 162.428 249.006 159.72C248.225 160.34 247.433 160.941 246.633 161.532C249.387 164.309 252.37 167.347 255.165 170.196C259.898 175.018 264.37 179.575 266.522 181.624L268.562 179.477C266.446 177.463 261.991 172.926 257.277 168.122Z" fill="#FFFB00"/>
<path d="M241.805 157.132L259.205 144.407L252.53 166.169L241.805 157.132Z" fill="#FFFB00"/>
<path d="M131.115 195.833C127.49 190.696 122.722 194.083 124.625 199.258C127.439 206.904 135.618 202.216 131.115 195.833Z" fill="#FFFB00"/>
<path d="M133.852 190.394C134.179 188.091 134.528 185.638 134.84 183.365C134.258 183.219 133.681 183.059 133.106 182.892C132.787 185.225 132.426 187.764 132.087 190.143C131.515 194.172 130.973 197.977 130.781 199.756L132.553 199.947C132.741 198.197 133.281 194.407 133.852 190.394Z" fill="#FFFB00"/>
<path d="M133.442 178.973L145.886 182.642L133.047 187.409L133.442 178.973Z" fill="#FFFB00"/>
<path d="M253.238 45.2812C251.953 39.0568 246.166 40.2673 245.842 45.8329C245.361 54.0548 254.833 53.0161 253.238 45.2812Z" fill="#FFFB00"/>
<path d="M257.968 41.3475C259.2 39.3455 260.514 37.214 261.721 35.2331C261.242 34.8623 260.77 34.4809 260.305 34.0935C259.068 36.1271 257.709 38.3325 256.434 40.4008C254.277 43.9027 252.24 47.2101 251.344 48.7809L252.909 49.6748C253.789 48.1296 255.818 44.8343 257.968 41.3475Z" fill="#FFFB00"/>
<path d="M262.201 30.599L272.251 39.0273L258.43 38.257L262.201 30.599Z" fill="#FFFB00"/>
<path d="M211.236 46.2547C207.915 43.6874 205.535 46.7853 207.765 49.7144C211.059 54.0439 215.361 49.4445 211.236 46.2547Z" fill="#FFFB00"/>
<path d="M211.915 42.2446C211.673 40.7115 211.415 39.0774 211.168 37.5638C210.767 37.585 210.368 37.597 209.969 37.603C210.222 39.1558 210.49 40.8456 210.74 42.4315C211.163 45.1148 211.564 47.6504 211.792 48.8232L212.959 48.5971C212.736 47.4439 212.337 44.9189 211.915 42.2446Z" fill="#FFFB00"/>
<path d="M209.414 35.0364L218.077 34.9354L210.817 40.498L209.414 35.0364Z" fill="#FFFB00"/>
<path d="M119.199 181.553C134.087 172.615 160.065 167.495 197.894 161.548C264.68 151.049 293.038 94.2965 238.023 65.9196" stroke="#FFFB00" stroke-width="2" stroke-miterlimit="10" stroke-linecap="round"/>
<path d="M135.789 239.865C148.125 230.502 170.264 222.109 205.552 216.456C259.574 207.801 287.933 191.342 302.963 158.993C322.7 116.514 308.918 61.9474 223.417 53.8597" stroke="#FFFB00" stroke-width="2" stroke-miterlimit="10" stroke-linecap="round"/>
<path d="M133.098 186.802C144.441 182.263 177.336 176.02 191.516 174.317C205.696 172.615 227.815 167.506 238.592 163.534" stroke="#FFFB00" stroke-miterlimit="10" stroke-linecap="round"/>
<path d="M266.379 147.644C271.483 143.103 278.856 131.185 279.424 123.807" stroke="#FFFB00" stroke-miterlimit="10" stroke-linecap="round"/>
<path d="M133.098 207.233C139.336 203.829 163.158 195.884 179.039 193.046C194.919 190.208 229.516 183.965 248.233 177.155" stroke="#FFFB00" stroke-miterlimit="10" stroke-linecap="round"/>
<path d="M145.574 219.151C153.515 215.179 185.843 204.396 197.187 202.694C208.53 200.991 239.725 194.748 249.934 191.343" stroke="#FFFB00" stroke-miterlimit="10" stroke-linecap="round"/>
<path d="M265.816 167.506C273.756 161.832 293.04 151.615 295.875 102.809" stroke="#FFFB00" stroke-miterlimit="10" stroke-linecap="round"/>
<path d="M274.887 178.289C281.125 174.885 297.006 161.264 301.544 136.86" stroke="#FFFB00" stroke-miterlimit="10" stroke-linecap="round"/>
<path d="M274.038 89.4727C273.471 84.9321 261.843 72.1637 253.336 68.19" stroke="#FFFB00" stroke-miterlimit="10" stroke-linecap="round"/>
<path d="M285.1 83.7969C280.279 75.8524 260.427 62.5157 229.516 59.1103" stroke="#FFFB00" stroke-miterlimit="10" stroke-linecap="round"/>
<path d="M291.743 70.6157C293.693 75.5466 298.453 85.6815 311.496 85.5684L311.351 83.2559L301.457 76.1768L290.613 63.0933L291.743 70.6157Z" fill="#FFFB00"/>
<path d="M129.361 264.3L134.054 251.237L123.217 242.066L120.852 256.731L129.361 264.3Z" fill="#5A3114"/>
<path d="M133.402 293.064L140.443 280.599L131.02 269.389L126.066 283.887L133.402 293.064Z" fill="#5A3114"/>
</g>
</g>
<defs>
<clipPath id="clip0_263_233">
<rect width="536" height="407.761" fill="white"/>
</clipPath>
</defs>
</svg>
